<svg xmlns="http://www.w3.org/2000/svg" viewBox="0 0 26 26" width="50" height="50"><g fill="#ffffff" transform="translate(5 -1031.362)" class="colorfff svgShape"><circle cx="8" cy="1044.362" r="13" fill="#ef4c45" fill-rule="evenodd" class="coloref4c45 svgShape"></circle><path fill="#df2209" style="line-height:normal;text-indent:0;text-align:start;text-decoration-line:none;text-decoration-style:solid;text-decoration-color:#000;text-transform:none;block-progression:tb;isolation:auto;mix-blend-mode:normal;marker:none" d="M15.713 25.697a13 13 0 0 0 .764-.172 13 13 0 0 0 1.234-.408 13 13 0 0 0 1.185-.531 13 13 0 0 0 1.127-.647 13 13 0 0 0 1.057-.755 13 13 0 0 0 .977-.858 13 13 0 0 0 .886-.951 13 13 0 0 0 .786-1.035 13 13 0 0 0 .68-1.108 13 13 0 0 0 .566-1.17 13 13 0 0 0 .431-1.18l-7.422-7.421a.5.5 0 0 0-.513-.5.5.5 0 0 0-.319.127l-2.386 2.129-1.723-1.723a.5.5 0 0 0-.516-.498.5.5 0 0 0-.336.143l-1.029 1.007L9.016 8h-1v10l7.697 7.697z" color="#000" font-family="sans-serif" font-weight="400" transform="translate(-5 1031.362)" class="colordf2209 svgShape"></path><path style="line-height:normal;text-indent:0;text-align:start;text-decoration-line:none;text-decoration-style:solid;text-decoration-color:#000;text-transform:none;block-progression:tb;isolation:auto;mix-blend-mode:normal;marker:none" d="M3 3v10h1V8.748l3.176 3.115a.5.5 0 0 0 .851-.357v-3.37a.5.5 0 0 0 .147.235l3.963 3.537a.5.5 0 0 0 .832-.373V4.461a.5.5 0 0 0-.514-.5.5.5 0 0 0-.318.127L8.174 7.625a.5.5 0 0 0-.147.232V4.494a.5.5 0 0 0-.515-.498.5.5 0 0 0-.336.143L4 7.254V3H3Zm8.969 2.578v4.84l-2.711-2.42 2.71-2.42Zm-4.942.108v4.63L4.666 8.002l2.361-2.316z" color="#000" font-family="sans-serif" font-weight="400" overflow="visible" transform="translate(.016 1036.362)" fill="#000000" class="color000 svgShape"></path></g></svg>