<svg xmlns="http://www.w3.org/2000/svg" viewBox="0 0 26 26" width="50" height="50"><g fill="#ffffff" class="colorfff svgShape"><circle cx="37.045" cy="28.409" r="12.5" fill="#ef4c45" fill-rule="evenodd" transform="matrix(1.04 0 0 1.04 -25.527 -16.545)" class="coloref4c45 svgShape"></circle><path fill="#df2209" style="line-height:normal;text-indent:0;text-align:start;text-decoration-line:none;text-decoration-style:solid;text-decoration-color:#000;text-transform:none;block-progression:tb;isolation:auto;mix-blend-mode:normal;marker:none" d="M16.885 25.404a13 13 0 0 0 1.177-.43 13 13 0 0 0 1.17-.566 13 13 0 0 0 1.108-.68 13 13 0 0 0 1.035-.785 13 13 0 0 0 .951-.886 13 13 0 0 0 .858-.977 13 13 0 0 0 .755-1.057 13 13 0 0 0 .647-1.127 13 13 0 0 0 .531-1.185 13 13 0 0 0 .408-1.234 13 13 0 0 0 .172-.764L17.984 8h-1v4.254L13.81 9.139a.5.5 0 0 0-.336-.143.5.5 0 0 0-.516.498v3.277l-.092-.09a.5.5 0 0 0-.017-.017l-.016-.02a.5.5 0 0 0-.021-.019L8.848 9.088a.5.5 0 0 0-.319-.127.5.5 0 0 0-.513.5v7.074a.5.5 0 0 0 .498.498l8.37 8.371zM12.94 13.182l.016.015v.32l-.146-.146a.5.5 0 0 0 .13-.19z" color="#000" font-family="sans-serif" font-weight="400" class="colordf2209 svgShape"></path><path style="line-height:normal;text-indent:0;text-align:start;text-decoration-line:none;text-decoration-style:solid;text-decoration-color:#000;text-transform:none;block-progression:tb;isolation:auto;mix-blend-mode:normal;marker:none" d="M10.969 1039.362v10h-1v-4.252l-3.176 3.116a.5.5 0 0 1-.852-.358v-3.37a.5.5 0 0 1-.146.235l-3.963 3.537a.5.5 0 0 1-.832-.373v-7.074a.5.5 0 0 1 .514-.5.5.5 0 0 1 .318.127l3.963 3.537a.5.5 0 0 1 .146.233v-3.364a.5.5 0 0 1 .516-.498.5.5 0 0 1 .336.143l3.176 3.115v-4.254h1zM2 1041.94v4.84l2.71-2.42-2.71-2.42zm4.941.108v4.63l2.362-2.314-2.362-2.316z" color="#000" font-family="sans-serif" font-weight="400" overflow="visible" transform="translate(7.016 -1031.362)" fill="#000000" class="color000 svgShape"></path></g></svg>